<?xml version="1.0" encoding="UTF-8" standalone="no"?>
<!-- Created with Inkscape (http://www.inkscape.org/) -->

<svg
   width="283.15784mm"
   height="130.02504mm"
   viewBox="0 0 283.15784 130.02504"
   version="1.1"
   id="svg159475"
   inkscape:version="1.1 (c68e22c387, 2021-05-23)"
   sodipodi:docname="ypareo.svg"
   xmlns:inkscape="http://www.inkscape.org/namespaces/inkscape"
   xmlns:sodipodi="http://sodipodi.sourceforge.net/DTD/sodipodi-0.dtd"
   xmlns="http://www.w3.org/2000/svg"
   xmlns:svg="http://www.w3.org/2000/svg">
  <sodipodi:namedview
     id="namedview159477"
     pagecolor="#ffffff"
     bordercolor="#666666"
     borderopacity="1.0"
     inkscape:pageshadow="2"
     inkscape:pageopacity="0.0"
     inkscape:pagecheckerboard="true"
     inkscape:document-units="mm"
     showgrid="false"
     fit-margin-top="0"
     fit-margin-left="0"
     fit-margin-right="0"
     fit-margin-bottom="0"
     inkscape:zoom="0.67081229"
     inkscape:cx="420.38586"
     inkscape:cy="382.37224"
     inkscape:window-width="1920"
     inkscape:window-height="1013"
     inkscape:window-x="-9"
     inkscape:window-y="-9"
     inkscape:window-maximized="1"
     inkscape:current-layer="layer1"
     showguides="true"
     inkscape:guide-bbox="true">
    <sodipodi:guide
       position="88.745018,161.57882"
       orientation="0,-1"
       id="guide3187" />
  </sodipodi:namedview>
  <defs
     id="defs159472" />
  <g
     inkscape:label="Calque 1"
     inkscape:groupmode="layer"
     id="layer1"
     transform="translate(6.2887676,-47.428781)">
    <path
       style="fill:#000000;stroke-width:0.264583"
       d="m -5.2493246,177.40926 -1.039443,-0.096 1.89271,-1.027 c 7.580308,-4.11318 15.4364816,-11.53216 22.1272036,-20.89583 6.913505,-9.67547 13.169924,-22.98881 17.531559,-37.30625 0.840116,-2.75775 3.786788,-14.13076 3.786788,-14.61553 0,-0.11063 -0.446484,-0.2029 -0.992187,-0.20505 -1.659107,-0.007 -4.317482,-0.75594 -6.548438,-1.84603 C 22.594162,97.061695 11.397594,83.160505 0.28713537,62.653965 -3.0324636,56.526995 -5.1742596,52.185645 -5.0545566,51.826535 c 0.052,-0.15601 0.249634,0.0137 0.439179,0.3771 0.725886,1.39174 3.528345,6.08471 3.63355697,6.08471 0.06075,0 0.05803,-0.0893 -0.0061,-0.19844 -0.06408,-0.10914 -0.38289197,-0.79375 -0.70846497,-1.52135 -0.325573,-0.72761 -0.656445,-1.44198 -0.73527,-1.5875 -0.07883,-0.14552 -0.06874,-0.19918 0.0224,-0.11923 0.09115,0.0799 1.349432,2.00907 2.79618597,4.28695 5.46079503,8.59792 9.01671103,13.19222 14.29970763,18.47547 4.114615,4.11481 8.125301,7.08197 11.053532,8.17756 5.10735,1.91091 12.20592,-0.0505 18.991819,-5.2476 2.634961,-2.01804 6.767509,-6.34345 8.977918,-9.39691 2.44961,-3.38391 7.772696,-8.97038 10.9816,-11.52499 5.442887,-4.33307 11.810524,-7.79098 18.146474,-9.85434 4.87122,-1.58636 13.243887,-2.95298 12.699997,-2.07295 -0.0899,0.14552 0.0519,0.27052 0.31512,0.27779 0.26325,0.007 -0.63123,0.41619 -1.98774,0.90871 -11.297067,4.10181 -22.672684,13.56774 -30.277076,25.19431 -7.262649,11.10407 -11.567652,22.71569 -14.632271,39.466715 -1.459764,7.97899 -2.157515,10.96058 -3.722944,15.90872 -3.654041,11.54998 -8.727271,20.68248 -16.032078,28.85987 -7.704992,8.62539 -18.779474,15.54185 -29.34320863,18.32603 -2.93236497,0.77285 -3.71918497,0.89026 -5.10715597,0.76209 z M 59.265472,152.14929 c 6.889991,-6.82941 10.804674,-13.27258 12.824664,-21.10812 3.005048,-11.65657 0.877261,-25.15855 -5.845376,-37.092105 -0.550833,-0.9778 -1.001517,-1.84009 -1.001517,-1.9162 0,-0.35807 3.282016,1.64337 5.200039,3.1711 l 2.143345,1.7072 1.950704,-0.25324 c 5.43969,-0.70617 9.80811,-0.0591 14.433757,2.13811 3.22599,1.532335 6.02242,4.467915 7.65673,8.037735 l 0.69438,1.51672 0.66481,-0.6648 0.6648,-0.6648 -0.59555,-0.83637 c -0.77685,-1.09099 -0.83189,-3.02101 -0.1207,-4.23245 0.63374,-1.07951 2.03709,-1.85955 3.345492,-1.85955 1.49772,0 3.80105,1.12436 4.43566,2.16525 0.6364,1.04383 0.70339,2.83083 0.14649,3.90776 -0.46976,0.90842 -1.93245,1.86449 -2.85247,1.86449 -0.55273,0 -0.69668,0.15858 -0.84066,0.92604 -0.2963,1.57945 -2.706162,5.99409 -4.342292,7.95467 -2.88361,3.45545 -7.78485,6.85933 -12.972157,9.00909 -2.1195,0.87837 -2.52032,1.14338 -2.75529,1.82166 -0.15124,0.43656 -1.02648,2.28203 -1.945,4.10104 -2.75144,5.4489 -7.91911,11.83894 -13.618503,16.83985 -2.614107,2.29374 -7.560191,6.1789 -7.866176,6.1789 -0.08591,0 0.49457,-0.67338 1.289963,-1.49639 l 1.44617,-1.49639 -1.5875,1.18454 c -1.996705,1.48987 -4.019,2.86657 -4.210833,2.86657 -0.08071,0 1.564952,-1.69664 3.65702,-3.77031 z m 28.070479,-38.30146 c 1.164167,-0.40234 2.560087,-0.92375 3.102037,-1.1587 0.9208,-0.39919 0.96756,-0.47403 0.71354,-1.14217 -2.391,-6.28879 -8.286377,-11.10699 -15.601084,-12.750495 l -1.085834,-0.24398 0.482545,0.57023 c 0.2654,0.31363 1.068578,1.225685 1.784836,2.026795 2.93611,3.28391 5.41314,7.89294 6.38015,11.8716 l 0.46497,1.91307 0.82109,-0.17742 c 0.4516,-0.0976 1.77358,-0.5066 2.93775,-0.90893 z m 45.745859,38.96292 c 0.10639,-0.10914 1.31805,-0.85328 2.69258,-1.65365 7.93549,-4.62071 14.56206,-11.10452 18.23447,-17.84165 5.03759,-9.24157 6.60794,-20.11961 4.6051,-31.90001 -0.36265,-2.133035 -1.40337,-6.369725 -1.93355,-7.871365 -0.46459,-1.31584 -0.33455,-1.3865 0.73042,-0.39687 0.43065,0.40018 0.68718,0.54901 0.57006,0.33073 -0.11712,-0.21828 0.19189,-0.0245 0.68668,0.43058 0.88859,0.8173 0.94186,0.82928 4.33921,0.97582 4.85461,0.2094 8.63879,1.12941 12.43542,3.02329 3.49309,1.74246 6.40945,5.106045 7.8164,9.015025 0.59271,1.64674 0.60865,1.66346 1.10865,1.16346 0.5,-0.50001 0.49941,-0.52022 -0.0407,-1.40617 -0.70797,-1.16128 -0.72238,-2.99413 -0.0325,-4.12565 1.11386,-1.82677 2.96061,-2.31347 5.35847,-1.41218 2.45063,0.92113 3.55161,2.79357 2.86531,4.87307 -0.42793,1.29663 -1.91188,2.54401 -3.02652,2.54401 -0.84143,0 -0.90829,0.0749 -1.47516,1.65364 -1.47104,4.09674 -4.6076,8.19099 -8.555,11.16712 -0.9568,0.72138 -0.99898,0.81505 -0.82904,1.841 0.31713,1.91455 1.6403,5.14604 2.8556,6.97405 2.33365,3.51019 6.07129,6.52529 11.11463,8.966 l 2.41898,1.17066 -2.36674,-0.14904 c -1.30171,-0.082 -3.55467,-0.39113 -5.00659,-0.68701 -7.89432,-1.60876 -13.04046,-5.56261 -15.06499,-11.57464 -0.35587,-1.05677 -0.69158,-1.94165 -0.74602,-1.96639 -0.0545,-0.0247 -1.19179,0.36719 -2.52742,0.87096 l -2.42843,0.91594 -0.98528,1.71979 c -1.603,2.79805 -3.5833,5.24881 -6.63372,8.2097 -4.80111,4.6602 -11.56446,9.31882 -18.21581,12.54712 -3.82129,1.8547 -5.36362,2.4314 -3.90261,1.45923 0.47295,-0.3147 0.8599,-0.61112 0.8599,-0.6587 0,-0.0476 -1.07752,0.38082 -2.39449,0.95202 -2.41641,1.04806 -2.8804,1.20229 -2.52736,0.84011 z m 38.42992,-37.66372 c 0.99759,-0.30575 2.73654,-0.90972 3.86432,-1.34215 2.36367,-0.90631 2.38484,-0.95835 1.4969,-3.68064 -1.7276,-5.29658 -5.49149,-9.48471 -11.00371,-12.243955 -2.11784,-1.06013 -4.52775,-2.02077 -5.06991,-2.02097 -0.20005,-7e-5 0.10298,0.54914 0.69336,1.25664 4.04995,4.853385 7.09915,11.574565 7.86219,17.330215 0.0916,0.69122 0.20631,1.25677 0.25483,1.25677 0.0485,0 0.90442,-0.25016 1.90202,-0.55591 z m 20.11299,-10.88732 c -0.0734,-0.1819 -0.13345,-0.0331 -0.13345,0.33073 0,0.3638 0.06,0.51263 0.13345,0.33073 0.0734,-0.1819 0.0734,-0.47956 0,-0.66146 z M 88.526578,151.30184 c 0,-0.0659 0.11346,-0.39333 0.25214,-0.7276 0.13867,-0.33427 0.66549,-1.73886 1.17071,-3.1213 2.46541,-6.74624 6.94925,-16.37207 10.475942,-22.48959 8.13782,-14.11611 17.03253,-22.87799 25.80433,-25.418985 2.21633,-0.64202 6.74688,-1.01072 6.74688,-0.54906 0,0.1669 0.29363,0.30346 0.65251,0.30346 h 0.65252 l -1.06807,1.918235 c -1.58065,2.83883 -2.23001,4.35539 -2.73858,6.39598 -1.43909,5.7742 -0.27414,11.07085 3.46702,15.76337 1.81142,2.27206 3.41184,3.67816 6.64168,5.8353 l 2.2754,1.51969 0.7435,-0.54969 c 1.01632,-0.7514 3.17179,-1.00008 4.55628,-0.52568 3.47461,1.19061 4.09601,4.86497 1.18705,7.01916 -1.03967,0.76992 -4.42206,0.78889 -5.44565,0.0305 -1.09231,-0.80927 -1.92783,-2.1803 -1.92783,-3.16345 0,-0.85848 -0.0165,-0.8699 -1.52136,-1.05477 -2.31055,-0.28386 -8.43231,-1.88305 -10.05873,-2.62765 l -1.44294,-0.66059 -1.889,0.58671 c -4.91139,1.52545 -12.00958,0.15741 -17.32375,-3.33881 l -2.16208,-1.42245 -1.81071,2.28445 c -4.18841,5.28424 -7.202052,9.73766 -12.009352,17.74689 -3.31207,5.51809 -3.60403,5.86927 -2.55572,3.07416 0.90908,-2.42387 0.35604,-1.72741 -1.61573,2.03476 -0.55522,1.05936 -1.05646,1.59878 -1.05646,1.13692 z m 61.564072,-17.92143 c -0.0845,-0.21107 -0.14716,-0.14837 -0.15985,0.15985 -0.0115,0.27892 0.051,0.43519 0.13896,0.34727 0.0879,-0.0879 0.0973,-0.31613 0.0209,-0.50712 z m -29.68415,-8.84285 c 0.87183,-0.21433 1.67597,-0.48052 1.78699,-0.59154 0.11102,-0.11102 -0.0595,-0.73121 -0.37893,-1.37819 -0.47134,-0.95469 -0.58278,-1.64999 -0.59138,-3.68989 -0.0109,-2.57625 0.36577,-4.2053 1.48937,-6.44179 0.28125,-0.5598 0.46684,-1.06235 0.41242,-1.11676 -0.15624,-0.15624 -3.58011,2.19767 -5.75881,3.95917 -2.43913,1.97208 -8.52424,8.05467 -8.3462,8.34275 0.0714,0.11547 0.85353,0.41303 1.73815,0.66124 3.46007,0.97085 6.41851,1.04904 9.64839,0.25501 z m 95.38466,20.11413 c -7.76591,-0.88651 -12.45947,-2.6124 -15.88027,-5.83941 -3.06343,-2.88989 -4.46597,-6.39533 -4.48238,-11.20309 -0.0294,-8.62726 3.76422,-16.70071 9.77932,-20.81175 3.59335,-2.45589 9.44378,-4.32212 13.5531,-4.32331 1.11536,-2.6e-4 1.29329,-0.0841 1.65213,-0.77805 0.49284,-0.95305 1.28688,-1.53316 2.57531,-1.881485 1.22679,-0.33166 3.63041,0.435155 4.76185,1.519145 1.56916,1.50336 1.48018,3.87574 -0.20074,5.3516 -0.85673,0.75222 -1.07925,0.81551 -2.86706,0.81551 -1.64741,0 -2.08926,-0.10247 -2.94462,-0.68294 -1.214,-0.82384 -1.39016,-0.75687 -4.19509,1.59493 -2.11171,1.77055 -3.83828,3.58585 -5.14108,5.40528 l -0.876,1.22336 1.00829,0.31039 c 1.64785,0.50729 5.01307,0.41695 7.23131,-0.19411 3.06522,-0.84438 6.86693,-3.14583 9.10616,-5.51262 0.42741,-0.45175 0.8839,-0.82137 1.01442,-0.82137 0.25027,0 -0.93062,1.62374 -2.30069,3.16348 -0.86637,0.97366 -0.70025,0.89797 1.14129,-0.51999 1.81534,-1.3978 0.95425,-0.12766 -1.77902,2.62412 -5.50527,5.54255 -10.41805,7.4635 -16.76469,6.5552 l -1.50741,-0.21574 -0.70895,2.27387 c -1.41492,4.53811 -0.56112,7.86527 2.93003,11.41802 3.27688,3.33471 8.30364,6.12462 15.0151,8.33356 2.29195,0.75435 4.16719,1.4593 4.16719,1.56657 0,0.10726 -0.38695,0.26973 -0.8599,0.36105 -1.0262,0.19814 -12.10261,0.41903 -13.4276,0.26778 z m -9.60246,-18.95765 c -0.0633,-0.32912 -0.11746,-0.12215 -0.1204,0.45994 -0.003,0.58208 0.0488,0.85136 0.11507,0.5984 0.0662,-0.25297 0.0686,-0.72922 0.005,-1.05834 z m 50.216,16.6023 c -8.24679,-1.16919 -17.10745,-4.2821 -30.09796,-10.57397 -1.94081,-0.94001 -2.98697,-1.70455 -1.88361,-1.37655 1.6521,0.49114 12.24883,2.13534 12.45208,1.93209 0.0383,-0.0383 -0.10495,-1.55096 -0.31842,-3.3614 -0.21346,-1.81043 -0.38915,-3.72701 -0.39042,-4.25906 -0.002,-0.9663 -0.004,-0.96756 -1.39136,-1.1555 -1.72787,-0.23403 -2.64709,-0.69355 -3.34332,-1.67131 -1.37338,-1.92873 -0.66291,-4.706 1.46603,-5.73083 0.84067,-0.40468 1.33798,-0.93373 2.11403,-2.24896 1.35316,-2.29329 4.39645,-6.35628 6.29655,-8.4063 1.72322,-1.85919 5.13546,-4.52655 6.99212,-5.465785 2.36834,-1.19806 4.67478,-1.73855 7.40454,-1.73519 5.27719,0.006 10.58079,2.388315 14.93541,6.707415 1.7844,1.76986 1.95191,2.03789 2.66861,4.26966 2.10103,6.54252 2.78408,9.51629 3.35767,14.61853 0.26993,2.4011 0.26982,3.47226 0,5.5381 -0.92564,7.07509 -3.79785,10.87894 -9.54587,12.64221 -2.00766,0.61587 -7.35069,0.75391 -10.71563,0.27685 z m -0.92604,-10.20818 c 9.3508,-1.57087 14.94033,-5.5759 16.54982,-11.85834 l 0.41786,-1.63108 -0.95949,-1.30708 c -2.42512,-3.30366 -6.06406,-5.74336 -9.7346,-6.52644 -2.33955,-0.49913 -6.42774,-0.31164 -8.50644,0.39012 -5.36404,1.81089 -9.75007,6.80895 -12.21228,13.91639 -0.48283,1.39375 -1.69445,6.71014 -1.69445,7.43498 0,0.21375 4.4487,0.31922 8.73125,0.207 2.53615,-0.0665 5.6407,-0.3286 7.40833,-0.62555 z"
       id="path159693" />
  </g>
</svg>
